HIERARCHY
ROOT root
{
	OFFSET 0.000000 0.000000 0.000000
	CHANNELS 6 Xposition Yposition Zposition Zrotation Yrotation Xrotation
	JOINT lhip
	{
		OFFSET 0.058581 -0.082280 -0.017664
		CHANNELS 3 Zrotation Yrotation Xrotation
		JOINT lknee
		{
			OFFSET 0.043451 -0.386469 0.008037
			CHANNELS 3 Zrotation Yrotation Xrotation
			JOINT lankle
			{
				OFFSET -0.014790 -0.426874 -0.037428
				CHANNELS 3 Zrotation Yrotation Xrotation
				JOINT ltoe
				{
					OFFSET 0.041054 -0.060286 0.122042
					CHANNELS 3 Zrotation Yrotation Xrotation
					End Site
					{
						OFFSET 0.000000 0.000000 0.000000
					}
				}
			}
		}
	}
	JOINT rhip
	{
		OFFSET -0.060310 -0.090513 -0.013543
		CHANNELS 3 Zrotation Yrotation Xrotation
		JOINT rknee
		{
			OFFSET -0.043257 -0.383688 -0.004843
			CHANNELS 3 Zrotation Yrotation Xrotation
			JOINT rankle
			{
				OFFSET 0.019056 -0.420046 -0.034562
				CHANNELS 3 Zrotation Yrotation Xrotation
				JOINT rtoe
				{
					OFFSET -0.034840 -0.062106 0.130323
					CHANNELS 3 Zrotation Yrotation Xrotation
					End Site
					{
						OFFSET 0.000000 0.000000 0.000000
					}
				}
			}
		}
	}
	JOINT lowerback
	{
		OFFSET 0.004439 0.124404 -0.038385
		CHANNELS 3 Zrotation Yrotation Xrotation
		JOINT upperback
		{
			OFFSET 0.004488 0.137956 0.026820
			CHANNELS 3 Zrotation Yrotation Xrotation
			JOINT chest
			{
				OFFSET -0.002265 0.056032 0.002855
				CHANNELS 3 Zrotation Yrotation Xrotation
				JOINT lowerneck
				{
					OFFSET -0.013390 0.211636 -0.033468
					CHANNELS 3 Zrotation Yrotation Xrotation
					JOINT upperneck
					{
						OFFSET 0.010113 0.088937 0.050410
						CHANNELS 3 Zrotation Yrotation Xrotation
						End Site
						{
							OFFSET 0.000000 0.000000 0.000000
						}
					}
				}
				JOINT lclavicle
				{
					OFFSET 0.071702 0.114000 -0.018898
					CHANNELS 3 Zrotation Yrotation Xrotation
					JOINT lshoulder
					{
						OFFSET 0.122921 0.045205 -0.019046
						CHANNELS 3 Zrotation Yrotation Xrotation
						JOINT lelbow
						{
							OFFSET 0.255332 -0.015649 -0.022946
							CHANNELS 3 Zrotation Yrotation Xrotation
							JOINT lwrist
							{
								OFFSET 0.265709 0.012698 -0.007375
								CHANNELS 3 Zrotation Yrotation Xrotation
								End Site
								{
									OFFSET 0.000000 0.000000 0.000000
								}
							}
						}
					}
				}
				JOINT rclavicle
				{
					OFFSET -0.082954 0.112472 -0.023707
					CHANNELS 3 Zrotation Yrotation Xrotation
					JOINT rshoulder
					{
						OFFSET -0.113228 0.046853 -0.008472
						CHANNELS 3 Zrotation Yrotation Xrotation
						JOINT relbow
						{
							OFFSET -0.260127 -0.014369 -0.031269
							CHANNELS 3 Zrotation Yrotation Xrotation
							JOINT rwrist
							{
								OFFSET -0.269108 0.006794 -0.006027
								CHANNELS 3 Zrotation Yrotation Xrotation
								End Site
								{
									OFFSET 0.000000 0.000000 0.000000
								}
							}
						}
					}
				}
			}
		}
	}
}
MOTION
Frames: 18
Frame Time: 0.033333
0.008269 1.421248 0.981856 77.051181 -1.052735 83.983275 5.027907 1.341467 -12.935881 -7.905735 3.611592 53.081954 -3.571622 8.328843 -7.947841 0.000000 -0.000000 0.000000 8.089471 1.812831 1.447925 0.423922 11.220313 14.319267 -6.399159 -3.319271 -13.591569 0.000000 -0.000000 0.000000 -2.776331 1.704402 9.239290 1.187067 -4.808162 4.445730 -3.293703 -2.430184 -0.752859 4.277885 -28.437610 -9.062663 6.926587 -36.035593 0.741017 -27.614580 1.727431 4.537440 -49.761358 -2.568566 6.625652 12.994682 -30.484894 6.311111 -4.962932 -3.796934 0.557663 25.832516 6.398166 -0.429912 50.990559 3.534396 10.713938 -15.789408 39.221668 5.916583 4.830258 5.064168 -1.954343 
0.038558 1.418225 0.984587 75.090174 -1.310999 83.882354 5.056638 0.364990 -15.043594 -7.317178 3.566537 46.620993 -2.249367 9.078294 -9.489778 0.000000 -0.000000 0.000000 7.265229 1.293059 4.444276 0.465482 12.744020 12.351172 -5.684699 -2.402598 -13.804831 0.000000 -0.000000 0.000000 -2.453300 2.816237 9.670997 0.740413 -4.390482 3.620754 -3.470472 -1.703644 -0.503209 4.620085 -27.458337 -9.152212 4.832681 -35.255426 4.649736 -27.605509 2.237187 4.254106 -50.107207 -1.636620 6.728655 13.340261 -30.174438 5.560996 -3.712354 -4.286762 -0.082136 25.656658 6.846761 -0.554848 50.111678 5.199028 11.017892 -17.358785 42.563868 4.168924 4.065935 6.035192 -2.411769 
0.067784 1.415895 0.986406 73.203243 -1.467313 83.996563 4.773140 -0.494534 -16.443847 -5.660910 3.045516 38.161398 -1.805864 10.158868 -9.886898 0.000000 -0.000000 0.000000 6.342991 0.822303 6.869624 0.611291 14.254924 11.341480 -4.693740 -1.551761 -13.690448 0.000000 -0.000000 0.000000 -2.072134 3.773168 9.820840 0.329155 -4.041977 3.161415 -3.515235 -1.184409 -0.152311 4.312923 -25.659915 -8.494810 3.865812 -34.324860 6.923847 -27.604566 2.719869 3.753544 -50.682960 -0.968988 6.779429 13.514793 -29.732758 4.601099 -2.358587 -4.571743 -0.443193 25.165552 7.414362 -0.541226 49.549958 7.353581 11.474628 -18.342009 44.876119 2.280054 2.599567 6.477415 -3.371856 
0.106047 1.413101 0.986831 70.995277 -1.252378 84.183618 4.475942 -0.471963 -16.917673 -2.781756 3.000536 25.364483 -1.899683 10.779832 -7.292077 0.000000 -0.000000 0.000000 5.289668 0.318051 10.283208 0.630896 15.868374 8.980037 -4.070342 -0.128112 -13.023623 0.000000 -0.000000 0.000000 -1.182205 4.524013 9.700886 -0.107545 -3.562840 3.290038 -3.445457 -0.478374 -0.123758 3.854608 -23.093902 -8.037980 2.493735 -32.086778 8.995313 -27.808824 2.953466 3.380400 -51.342085 0.138918 6.943532 13.776132 -29.141523 4.172419 -3.066780 -4.506352 -0.352408 24.473339 8.126684 -0.433566 49.129082 9.537517 11.826600 -19.221269 47.120891 0.522088 1.287120 7.150347 -4.304055 
0.128678 1.411266 0.986062 69.871198 -0.764415 84.236093 4.638775 0.083801 -16.934589 -2.182589 2.161261 17.795044 -2.158338 10.177819 -5.715458 0.000000 -0.000000 0.000000 4.964522 0.119474 12.123650 0.734872 16.305050 8.166468 -3.618508 0.959988 -13.028191 0.000000 -0.000000 0.000000 -0.389519 4.600839 9.741628 -0.319081 -3.382324 3.628461 -3.397730 -0.152813 -0.198264 3.561823 -21.406575 -7.633603 2.268136 -30.489442 9.209720 -28.029038 2.940814 3.209938 -51.722352 0.842644 6.870280 13.865288 -28.850008 3.762754 -1.865830 -4.531891 0.213958 24.284146 8.811048 -0.670217 48.696874 10.640308 11.903813 -18.861712 48.006783 0.547602 0.001075 7.323787 -4.293652 
0.161146 1.408962 0.983905 68.219560 -0.528784 84.366868 4.523473 0.722829 -16.052210 -2.182411 1.738486 7.804831 -3.087009 8.185771 -5.910177 0.000000 -0.000000 0.000000 3.589710 -0.557743 14.830250 1.140403 17.198127 6.543513 -1.595118 2.068976 -12.646322 0.000000 -0.000000 0.000000 0.165839 4.957453 9.563581 -0.526341 -3.253252 4.036339 -3.335549 0.302995 -0.259801 3.119207 -19.213302 -7.640444 0.957803 -28.873768 10.312624 -27.998365 3.072074 2.992473 -52.282446 1.615075 6.971280 13.223914 -27.864237 4.151101 -2.865618 -4.733847 0.736709 24.197460 9.187792 -0.580332 48.653729 11.902310 12.212682 -19.305178 49.055556 -0.247729 0.352290 7.647414 -3.375753 
0.193963 1.406380 0.980285 66.620809 -0.401207 84.505127 4.282734 1.076181 -15.597817 -1.713483 1.215240 1.441108 -3.501006 6.410529 -5.050212 0.000000 -0.000000 0.000000 2.189181 -0.962482 16.968700 1.355425 17.542338 5.807818 -0.378667 3.413446 -12.556690 0.000000 -0.000000 0.000000 0.424745 5.260714 9.948391 -0.666015 -3.256464 3.869638 -3.291325 0.881539 -0.342398 2.553829 -17.524704 -7.640909 0.604383 -27.370827 10.481494 -28.028873 2.999778 2.838798 -52.606814 2.282288 7.016405 12.464251 -26.614628 4.063298 -0.056848 -5.547004 1.250985 24.332713 9.473440 -0.607234 48.700407 12.532488 12.567321 -18.625178 49.786945 0.024271 -1.204795 8.086230 -2.591653 
0.228723 1.403070 0.976609 65.284743 0.164638 84.445865 4.081949 1.759717 -15.810392 -1.494584 2.644841 0.098077 -3.391737 6.718316 -4.722796 0.000000 -0.000000 0.000000 1.765703 -1.025192 18.657563 1.344162 18.390606 6.409615 0.224260 3.897737 -12.228469 0.000000 -0.000000 0.000000 1.034665 5.447693 9.964002 -0.733680 -3.183867 4.057553 -3.393666 1.054146 -0.077256 2.161409 -16.243147 -7.988584 0.061215 -25.734246 10.542865 -28.308891 3.167276 2.522928 -52.568399 2.639635 6.606694 12.145805 -25.481440 4.962596 -1.440216 -5.322546 3.190398 24.861913 9.417968 -0.386555 48.788772 12.679942 12.849687 -18.281410 50.355036 0.846769 -0.356277 8.187317 -0.927137 
0.266053 1.399849 0.974456 64.210278 0.274330 84.453140 3.499035 1.515984 -15.835301 -1.733780 3.472210 2.431588 -2.963669 7.815436 -5.195518 0.000000 -0.000000 0.000000 1.022203 -0.889459 20.128550 1.189432 19.309994 7.781455 1.089530 4.514409 -11.973104 0.000000 -0.000000 0.000000 1.031933 5.700590 9.623341 -0.809900 -3.258650 4.192311 -3.646618 1.183458 0.149111 1.895206 -14.802158 -8.341996 -0.409107 -24.882589 11.285192 -28.402983 3.417084 1.980715 -52.578276 2.849663 6.493001 11.692825 -23.250905 5.450251 -1.243561 -5.096188 4.106009 25.724124 8.719623 -0.388303 49.502395 11.952828 13.850670 -16.691842 50.074310 2.221741 -1.270713 8.257073 -1.901936 
0.316433 1.393875 0.972208 63.261442 0.293835 85.168274 2.474031 0.062499 -15.055689 -1.693520 3.705041 4.758309 -1.649487 8.315624 -1.228526 0.000000 -0.000000 0.000000 0.313904 -0.274999 20.397949 0.969358 19.947393 10.620022 3.064663 5.195809 -10.041270 0.000000 -0.000000 0.000000 0.160207 6.170940 8.097867 -0.529496 -3.431373 4.309200 -3.682969 1.185112 0.064337 1.223719 -13.675672 -7.655255 0.214317 -23.027805 10.593684 -28.568101 3.791079 2.002121 -52.708471 2.720654 6.347933 11.372069 -19.704709 4.626678 -0.921193 -4.914247 3.959651 26.793631 7.219874 -0.125798 50.954832 9.889664 14.967618 -15.637003 48.533192 4.012495 0.034815 8.445893 -0.608033 
0.358914 1.388986 0.973047 63.241049 -0.062980 86.056310 1.182078 -0.727369 -14.160284 -1.533637 2.787748 4.028748 0.086351 8.174755 2.448601 0.000000 -0.000000 0.000000 -0.092267 0.306177 18.954648 0.986314 19.998842 15.124580 5.781544 5.327399 -6.795743 0.000000 -0.000000 0.000000 -1.203321 5.884157 6.776973 -0.394126 -3.419922 3.545549 -3.637795 0.908143 0.204417 1.270458 -13.036092 -7.895519 0.187485 -22.133168 11.416322 -28.892705 4.814783 1.597841 -52.243946 2.327673 6.538193 10.956225 -16.452210 4.021248 -0.251077 -5.067756 4.919952 28.251574 5.345797 -0.468200 51.627494 7.820094 16.438618 -12.700593 45.266122 6.689096 1.030941 8.520488 0.538305 
0.401334 1.385252 0.976853 64.152759 -0.575738 86.670682 0.100286 -1.317016 -12.734968 -2.607877 2.138364 4.526989 1.715580 8.268249 1.552215 0.000000 -0.000000 0.000000 -0.736133 0.748557 16.400393 1.990036 18.890842 21.441184 9.562318 6.020500 -0.790991 0.000000 -0.000000 0.000000 -2.652535 5.197133 5.695816 -0.221388 -3.710669 3.043012 -3.617075 0.636670 0.139774 0.964577 -12.559629 -7.254059 0.867265 -21.482977 10.987769 -29.057412 5.358167 1.700832 -52.022474 1.584129 6.560740 10.905121 -13.653402 3.315263 -0.647449 -4.661650 5.168738 29.311766 3.312759 -0.718000 53.051048 5.846070 17.089669 -10.285083 39.592491 8.744373 2.700483 8.068833 1.374599 
0.439875 1.382062 0.982738 65.441563 -1.146829 86.904808 -1.047967 -2.957859 -9.771565 -3.510003 0.856217 2.812571 3.279209 8.835310 0.551574 0.000000 -0.000000 0.000000 -0.371459 2.107950 12.091669 3.409376 18.198634 30.223263 13.519693 5.740549 8.688954 0.000000 -0.000000 0.000000 -4.285711 4.413008 5.932577 -0.044595 -3.810946 2.251652 -3.495797 0.001042 -0.005380 1.012655 -12.603869 -7.631435 1.387734 -20.630771 11.012050 -28.340646 5.111017 1.971124 -52.685143 0.441463 6.838965 11.068949 -10.922071 2.208381 -1.798168 -4.696623 4.937517 30.135062 2.335935 -0.776812 54.774447 3.879841 17.713341 -9.489875 32.278308 8.520795 4.733033 6.885302 2.660914 
0.476834 1.380812 0.986073 66.399434 -1.369642 86.873477 -2.292900 -2.910567 -6.596558 -3.995543 -1.019836 0.856841 5.278181 9.279802 -0.142616 0.000000 -0.000000 0.000000 0.330182 3.572042 6.754789 6.215405 18.743483 40.495376 15.295394 5.354223 17.460947 0.000000 -0.000000 0.000000 -4.766990 2.907485 6.113783 -0.014647 -3.365363 2.395759 -3.705060 -0.243274 -0.002365 0.532970 -12.732091 -8.353368 1.951375 -19.646532 10.380532 -27.718315 4.125049 2.336705 -53.340379 -0.851050 7.020794 11.380339 -9.980644 1.355524 -0.899213 -4.632309 5.053186 30.118100 2.717097 -0.256156 56.749185 2.631538 17.802306 -9.283226 24.012978 8.080177 5.881378 6.055407 4.381711 
0.513154 1.381215 0.988525 68.400662 -1.423454 86.274763 -3.548921 -2.181000 -3.389374 -4.062520 -3.965474 0.069728 5.722103 8.935682 -1.650257 0.000000 -0.000000 0.000000 0.826861 4.145923 2.032510 7.254548 15.802481 48.760734 15.455219 3.098260 20.515574 0.000000 -0.000000 0.000000 -4.877300 0.958547 7.263216 0.024986 -3.305003 2.493770 -3.629884 -0.476374 -0.028208 0.176811 -12.633919 -9.125584 1.917100 -18.809957 9.899650 -27.734423 2.830234 2.878006 -53.506874 -2.242769 7.345925 11.885651 -10.549802 1.332050 -2.217375 -4.701002 5.765154 30.332247 3.626202 0.577789 57.223365 1.046399 17.444593 -9.097863 17.140777 8.132271 9.088635 4.815413 6.287882 
0.548129 1.381250 0.990175 71.927714 -1.065784 85.906220 -4.113970 -0.634872 -1.334981 -4.312405 -7.347082 0.699130 5.610226 7.377649 -3.132130 0.000000 -0.000000 0.000000 1.385571 3.805388 -2.369867 5.914174 11.334859 54.184791 13.149298 0.155577 15.570992 0.000000 -0.000000 0.000000 -4.543885 -1.151051 8.298652 0.288215 -3.716527 2.413123 -3.507051 -1.337304 0.206708 0.034384 -12.980878 -9.852904 1.895610 -18.834560 9.339842 -27.847788 1.954440 2.743466 -53.410943 -4.306657 7.728407 12.086965 -11.490847 2.446657 -5.083226 -4.357696 5.496828 30.809404 3.382890 0.255874 56.726056 -0.557170 16.759074 -8.615000 11.888996 10.168450 15.056216 3.330395 8.688400 
0.583883 1.382237 0.991518 75.179279 -0.839903 85.114318 -4.970599 -1.677493 1.765938 -3.991400 -9.193292 0.728279 5.905796 7.571725 -4.658644 0.000000 -0.000000 0.000000 1.286976 3.530239 -5.757295 4.208790 7.434365 57.263774 9.766956 -3.415748 7.534115 0.000000 -0.000000 0.000000 -4.083437 -2.318506 9.678596 0.589860 -3.991178 1.939623 -3.320667 -2.375765 0.661878 0.298566 -12.771100 -10.082118 1.274734 -19.130075 9.509491 -27.911264 1.263545 2.871055 -53.305108 -7.031895 8.395275 12.193327 -13.039703 4.795150 -8.269181 -3.843584 6.498623 30.923995 2.635754 -0.025912 56.014448 -2.958875 16.087308 -8.933191 9.328611 11.901260 20.369653 1.601608 9.266480 
0.618709 1.383333 0.992406 78.442210 -0.438283 84.632999 -5.587723 -3.006821 4.376069 -3.879218 -10.607862 1.213687 6.136695 7.740576 -6.118566 0.000000 -0.000000 0.000000 1.099059 3.564429 -9.284501 2.442792 4.220747 57.971816 6.627798 -7.388691 1.540801 0.000000 -0.000000 0.000000 -3.528441 -3.218108 10.480164 0.983057 -4.192412 1.874976 -3.001448 -3.102883 1.100345 0.353432 -13.714402 -9.747537 1.579624 -19.920715 8.689949 -27.422347 0.489054 2.681068 -54.338953 -9.713131 9.805988 12.569050 -15.751952 6.218785 -8.168911 -3.804169 5.422096 30.639199 1.307143 -0.528010 55.423362 -5.437996 15.144438 -9.087025 8.588048 11.578772 21.801814 0.760991 8.521736 
